<svg width="174" height="44" viewBox="0 0 174 44" fill="none" xmlns="http://www.w3.org/2000/svg">
<g clip-path="url(#clip0_22_3969)">
<path d="M70.2948 30.3743C70.2948 29.9999 70.0458 29.7493 69.5508 29.6255V29.3749C69.7998 29.3749 70.7298 29.4383 70.9788 29.4383C71.1648 29.4383 72.0977 29.3749 72.3437 29.3749V29.6255C71.9087 29.7493 71.6597 29.9999 71.6597 30.3743V35.0632C71.6597 36.5638 72.4667 37.376 74.1437 37.376C75.6347 37.376 76.7507 36.6876 76.7507 35.1266V30.3139C76.7507 29.9395 76.5017 29.6889 76.0067 29.5651V29.3779C76.1927 29.3779 76.9367 29.4413 77.1857 29.4413C77.4346 29.4413 78.1786 29.3779 78.3646 29.3779V29.6285C77.8066 29.7523 77.6206 30.0029 77.6206 30.3773V34.9394C77.6206 37.0016 76.4417 38.1882 73.8947 38.1882C71.5337 38.1882 70.2918 37.1254 70.2918 35.187V30.3743H70.2948ZM80.4796 37.8138C81.0376 37.69 81.2236 37.4394 81.2236 37.065V30.5645C81.2236 30.0029 80.9116 29.7523 80.4166 29.6285V29.3779H82.2166L87.8055 36.0022V30.3773C87.8055 30.0029 87.5565 29.7523 87.0615 29.6285V29.3779C87.2475 29.3779 87.9915 29.4413 88.2405 29.4413C88.4895 29.4413 89.2334 29.3779 89.4194 29.3779V29.6285C88.8614 29.7523 88.6125 30.0029 88.6125 30.3773V38.1882H88.3005C88.1145 38.1248 87.6795 37.9376 87.0585 37.2522L82.0276 31.3767V37.1254C82.0276 37.4998 82.2136 37.7504 82.7716 37.8742V38.1248C82.5856 38.1248 81.8416 38.0614 81.5926 38.0614C81.3436 38.0614 80.5996 38.1248 80.4136 38.1248L80.4766 37.8138H80.4796ZM124.693 36.0626H124.942C125.065 36.5638 125.314 36.9986 125.749 37.2492C126.121 37.5632 126.805 37.687 127.3 37.687C128.419 37.687 129.163 37.1254 129.163 36.2498C129.163 35.3138 128.233 34.876 127.177 34.3114C126.37 33.8736 124.756 33.2486 124.756 31.6876C124.756 30.2505 125.875 29.3115 127.612 29.3115C128.791 29.3115 129.289 29.6255 130.096 29.5621V31.3133H129.847C129.535 30.2505 128.605 29.9395 127.549 29.9395C126.37 29.9395 125.998 30.6279 125.998 31.2529C125.998 32.1889 126.928 32.6901 127.984 33.1913C129.163 33.6925 130.468 34.3778 130.468 35.8784C130.468 37.379 129.349 38.315 127.363 38.315C126.184 38.315 125.437 37.9406 124.816 37.8772L124.693 36.0656V36.0626ZM148.722 34.4382L146.424 30.7517C146.052 30.1267 145.74 29.7523 145.305 29.6255V29.3749C145.617 29.3749 146.484 29.4383 146.67 29.4383C146.919 29.4383 147.789 29.3749 148.161 29.3749V29.6255C147.849 29.6889 147.726 29.8127 147.726 30.0633C147.726 30.2505 147.849 30.5011 147.975 30.7517C148.098 30.9389 149.652 33.5626 149.652 33.5626L151.266 30.7517C151.452 30.4377 151.515 30.1901 151.515 30.0029C151.515 29.8157 151.392 29.6889 151.143 29.6889V29.3749C151.392 29.3749 152.013 29.4383 152.199 29.4383C152.385 29.4383 153.069 29.3749 153.318 29.3749V29.6255C152.697 29.8761 152.325 30.4377 151.953 31.0627L149.904 34.562M150.027 34.1242V37.062C150.027 37.376 150.276 37.7504 150.771 37.8108V38.0614C150.522 38.0614 149.592 37.9979 149.343 37.9979C149.094 37.9979 148.224 38.0614 147.915 38.0614V37.8108C148.413 37.687 148.659 37.373 148.659 37.062V34.251M106.375 29.3749H111.715C111.901 29.3749 112.15 29.3749 112.336 29.2511H112.585L112.522 31.0023H112.273C112.087 30.4407 111.838 30.0029 110.845 30.0029H108.547V33.1278H110.347C110.596 33.1278 110.905 33.1278 111.031 33.0644C111.403 33.001 111.589 32.7504 111.715 32.376H111.964V34.562H111.715C111.592 34.1876 111.466 33.937 111.031 33.8736C110.908 33.8102 110.596 33.8102 110.347 33.8102H108.547V37.373H111.094C112.213 37.373 112.522 36.9352 112.771 36.2468H113.02L112.771 38.0583C111.964 37.9949 111.466 37.9949 110.536 37.9949H107.866C107.617 37.9949 106.687 38.0583 106.375 38.0583V37.8077C106.873 37.6839 107.119 37.4937 107.119 36.9955V30.3712C107.119 29.9334 106.87 29.6828 106.375 29.6225V29.3719V29.3749ZM92.7134 30.4377C92.7134 29.9999 92.4644 29.7493 91.9694 29.6255V29.3749C92.2814 29.3749 93.1484 29.4383 93.4604 29.4383C93.7094 29.4383 94.6394 29.3749 94.9513 29.3749V29.6255C94.4534 29.7493 94.1444 29.9395 94.1444 30.4377V36.9986C94.1444 37.4364 94.3934 37.687 94.9513 37.8108V38.0614C94.6394 38.0614 93.7724 37.9979 93.4604 37.9979C93.2114 37.9979 92.2814 38.0614 91.9694 38.0614V37.8108C92.5274 37.687 92.7764 37.4967 92.7764 36.9986L92.7134 30.4377ZM133.264 30.4377C133.264 29.9999 133.015 29.7493 132.52 29.6255V29.3749C132.832 29.3749 133.762 29.4383 134.011 29.4383C134.26 29.4383 135.19 29.3749 135.502 29.3749V29.6255C135.004 29.7493 134.758 29.9395 134.758 30.4377V36.9986C134.758 37.4364 135.007 37.687 135.502 37.8108V38.0614C135.19 38.0614 134.323 37.9979 134.011 37.9979C133.762 37.9979 132.832 38.0614 132.52 38.0614V37.8108C133.078 37.687 133.264 37.4967 133.264 36.9986V30.4377ZM140.716 29.4383C137.797 29.4383 137.299 29.3749 136.741 29.3145V31.0657H136.99C137.239 30.2535 137.674 30.0663 138.232 30.0663H140.095V36.9412C140.095 37.379 139.846 37.6296 139.288 37.7534V38.004C139.6 38.004 140.53 37.9406 140.779 37.9406C141.028 37.9406 141.958 38.004 142.27 38.004V37.7534C141.772 37.6296 141.463 37.379 141.463 36.9412V30.0663H143.263C143.82 30.0663 144.255 30.2535 144.504 31.0657H144.753V29.3145C144.069 29.3779 143.635 29.4383 140.719 29.4383H140.716ZM117.304 37.0016C117.304 37.4394 117.553 37.69 118.111 37.8138V38.0644C117.799 38.0644 116.869 38.001 116.62 38.001C116.371 38.001 115.501 38.0644 115.192 38.0644V37.8138C115.69 37.69 115.936 37.4998 115.936 37.0016V30.3773C115.936 29.9395 115.687 29.6889 115.192 29.6285V29.3779C115.504 29.3779 116.371 29.4413 116.62 29.4413C117.055 29.4413 118.234 29.3779 118.732 29.3779C120.781 29.3779 121.9 30.2535 121.9 31.6907C121.9 32.8169 121.03 33.629 119.728 33.94C119.728 33.94 120.04 34.1272 120.349 34.4412C120.721 34.879 121.714 36.2528 122.089 36.754C122.464 37.2552 123.019 37.8168 123.58 37.8168V38.004C123.331 38.0674 122.896 38.1278 122.587 38.1278C121.903 38.1278 121.345 37.8772 120.787 37.2522C120.289 36.6906 119.545 35.501 119.047 34.876C118.735 34.5016 118.363 34.1876 117.742 34.0638C117.619 34.0638 117.493 34.0004 117.37 34.0004L117.307 37.0016H117.304ZM117.304 33.4992C117.553 33.5626 117.988 33.5626 118.36 33.5626C119.974 33.5626 120.472 32.6266 120.472 31.8114C120.472 30.6249 119.728 29.9365 118.3 29.9365C117.988 29.9365 117.616 29.9999 117.307 30.0603V33.4962L117.304 33.4992ZM96.9373 30.4377C96.7513 29.9999 96.4393 29.6889 95.9443 29.6255V29.3749C96.2563 29.3749 97.3093 29.4383 97.5583 29.4383C97.7443 29.4383 98.6773 29.3749 98.9863 29.3749V29.6255C98.7373 29.6889 98.3653 29.8127 98.3653 30.1267C98.3653 30.3139 98.4883 30.6279 98.7373 31.1261L100.972 36.1894L103.084 31.1261C103.27 30.6883 103.396 30.3773 103.396 30.1901C103.396 29.9395 103.147 29.7523 102.775 29.6889V29.3749C103.024 29.3749 103.705 29.4383 103.954 29.4383C104.14 29.4383 104.947 29.3749 105.259 29.3749V29.6255C104.761 29.7493 104.389 30.0633 104.14 30.7517L101.035 38.0644H100.351L96.9373 30.4407V30.4377ZM104.884 7.37639C104.512 6.5642 103.954 6.00262 103.084 5.81542V5.37762C103.642 5.37762 105.568 5.44103 106.003 5.44103C106.375 5.44103 108.238 5.37762 108.859 5.37762V5.81542C108.361 5.93921 107.74 6.18981 107.74 6.7514C107.74 7.12579 107.989 7.68738 108.424 8.62637L112.648 18.2518L116.623 8.62637C116.935 7.87759 117.181 7.2526 117.181 6.8148C117.181 6.3136 116.683 5.93921 116.062 5.81542V5.37762C116.62 5.37762 117.862 5.44103 118.297 5.44103C118.669 5.44103 120.16 5.37762 120.781 5.37762V5.81542C119.788 6.06602 119.167 6.69101 118.609 7.941L112.771 21.8146H111.466L104.884 7.37639ZM48.3741 21.25C49.1181 21.0628 49.6791 20.7488 49.6791 19.8762V7.18919C49.6791 6.37701 49.1811 6.00262 48.3741 5.81542V5.31422C48.7461 5.31422 50.4861 5.37762 50.9211 5.37762C51.4191 5.37762 53.2191 5.31422 53.5911 5.31422V5.75202C52.8471 5.93921 52.2861 6.25322 52.2861 7.12579V12.5001H61.7239V7.18617C61.7239 6.31058 61.2259 5.93619 60.4189 5.8124V5.3112C60.7909 5.3112 62.5909 5.37461 63.0889 5.37461C63.5239 5.37461 65.2609 5.3112 65.6958 5.3112V5.749C64.9519 5.93619 64.3909 6.2502 64.3909 7.12277V19.8098C64.3909 20.622 64.8889 20.9964 65.6958 21.1836V21.6214C65.3239 21.6214 63.5239 21.558 63.0889 21.558C62.5909 21.558 60.8539 21.6214 60.4189 21.6214V21.247C61.1629 21.0598 61.7239 20.7458 61.7239 19.8732V13.8739H52.2861V19.8732C52.2861 20.7488 52.7841 21.0598 53.5911 21.247V21.6848C53.2191 21.6848 51.3561 21.6214 50.9211 21.6214C50.4861 21.6214 48.8091 21.6848 48.3741 21.6848V21.247V21.25ZM157.17 21.25C158.163 21.0628 158.661 20.6884 158.661 19.8128V7.18919C158.661 6.3136 158.103 5.93921 157.17 5.81542V5.31422C157.728 5.31422 159.468 5.37762 159.963 5.37762C160.77 5.37762 162.945 5.19043 164.682 5.19043C170.457 5.19043 173.997 8.43918 173.997 13.3787C173.997 18.3183 170.334 21.7542 164.373 21.7542C162.633 21.7542 160.647 21.6304 159.84 21.6304C159.342 21.6304 157.728 21.6938 157.17 21.6938V21.256V21.25ZM161.268 20.4378C161.889 20.5616 162.945 20.625 163.815 20.625C168.66 20.625 171.204 17.6872 171.204 13.5629C171.204 9.43856 168.534 6.3136 164.001 6.3136C163.071 6.3136 161.889 6.37701 161.268 6.5008V20.4378ZM91.6574 19.7494C91.6574 20.5616 92.2154 21.0628 93.1484 21.25V21.6878C92.5904 21.6878 90.8504 21.6244 90.2924 21.6244C89.8574 21.6244 88.1205 21.6878 87.5595 21.6878V21.25C88.4895 21.0628 88.9874 20.625 88.9874 19.7494V7.2526C88.9874 6.50382 88.5525 6.00262 87.5595 5.81542V5.31422C88.1175 5.31422 89.7944 5.37762 90.2924 5.37762C91.0994 5.37762 93.3344 5.25383 94.2674 5.25383C98.1793 5.25383 100.354 6.87821 100.354 9.62877C100.354 11.8147 98.7403 13.2549 96.2563 13.8799C96.2563 13.8799 96.8143 14.1909 97.3753 14.8793C98.0593 15.6915 99.9823 18.4421 100.729 19.378C101.473 20.314 102.469 21.3768 103.522 21.3768V21.7512C103.024 21.875 102.217 21.9384 101.596 21.9384C100.291 21.9384 99.2353 21.4372 98.1793 20.1872C97.3093 19.1244 95.7583 16.8116 94.8883 15.6885C94.3303 14.9397 93.6464 14.3751 92.4044 14.1879C92.1554 14.1245 91.9064 14.1245 91.6604 14.0641V19.7524L91.6574 19.7494ZM91.6574 13.1251C92.1554 13.1885 92.9624 13.2489 93.7064 13.2489C96.7483 13.2489 97.6813 11.4977 97.6813 9.93674C97.6813 7.75078 96.1903 6.37399 93.5834 6.37399C93.0254 6.37399 92.2184 6.43739 91.6574 6.56118V13.1251ZM142.951 19.7494C142.951 20.5616 143.509 21.0628 144.441 21.25V21.6878C143.884 21.6878 142.144 21.6244 141.649 21.6244C141.214 21.6244 139.477 21.6878 138.916 21.6878V21.25C139.846 21.0628 140.344 20.625 140.344 19.7494V7.2526C140.344 6.50382 139.909 6.00262 138.916 5.81542V5.31422C139.474 5.31422 141.151 5.37762 141.649 5.37762C142.456 5.37762 144.69 5.25383 145.56 5.25383C149.472 5.25383 151.647 6.87821 151.647 9.62877C151.647 11.8147 150.033 13.2549 147.549 13.8799C147.549 13.8799 148.107 14.1909 148.668 14.8793C149.352 15.6915 151.275 18.4421 152.022 19.378C152.766 20.314 153.762 21.3768 154.815 21.3768V21.7512C154.317 21.875 153.51 21.9384 152.889 21.9384C151.584 21.9384 150.528 21.4372 149.472 20.1872C148.602 19.1244 147.051 16.8116 146.181 15.6885C145.623 14.9397 144.939 14.3751 143.698 14.1879C143.449 14.1245 143.2 14.1245 142.954 14.0641V19.7524L142.951 19.7494ZM142.951 13.1251C143.449 13.1885 144.255 13.2489 144.999 13.2489C148.041 13.2489 148.974 11.4977 148.974 9.93674C148.974 7.75078 147.483 6.37399 144.876 6.37399C144.318 6.37399 143.512 6.43739 142.951 6.56118V13.1251ZM68.0598 21.25C69.1158 20.9994 69.6738 20.314 70.0458 19.4384L75.2627 6.8148C75.5117 6.3136 75.7607 5.25383 75.7607 5.25383H77.2517C77.2517 5.25383 77.5006 6.31662 77.7496 6.87821L83.2755 19.5018C83.6475 20.3774 84.0825 21.0024 85.2015 21.253V21.6908C84.5805 21.6908 82.7805 21.6274 82.3456 21.6274C81.9106 21.6274 80.1736 21.6908 79.5526 21.6908V21.253C80.3596 21.0658 80.6086 20.628 80.6086 20.2536C80.6086 19.9396 80.4856 19.5048 80.2966 19.1274L79.1176 16.4403H73.0307L71.9747 19.1908C71.8517 19.5048 71.7257 19.9396 71.7257 20.2536C71.7257 20.6914 71.9747 21.0658 72.8447 21.3164V21.7542C72.2867 21.7542 70.8588 21.6908 70.5468 21.6908L68.1858 21.7542L68.0628 21.253L68.0598 21.25ZM78.4306 15.1269L75.8237 9.06417L73.4027 15.1269H78.4336H78.4306ZM119.725 21.25C120.781 20.9994 121.339 20.314 121.711 19.4384L126.928 6.8148C127.177 6.3136 127.426 5.25383 127.426 5.25383H128.917C128.917 5.25383 129.166 6.31662 129.415 6.87821L134.941 19.5018C135.313 20.3774 135.748 21.0024 136.867 21.253V21.6908C136.246 21.6908 134.446 21.6274 134.011 21.6274C133.576 21.6274 131.839 21.6908 131.218 21.6908V21.253C132.025 21.0658 132.274 20.628 132.274 20.2536C132.274 19.9396 132.151 19.5048 131.962 19.1274L130.783 16.4403H124.696L123.64 19.1908C123.517 19.5048 123.391 19.9396 123.391 20.2536C123.391 20.6914 123.64 21.0658 124.51 21.3164V21.7542C123.952 21.7542 122.524 21.6908 122.212 21.6908L119.851 21.7542V21.253H119.728L119.725 21.25ZM130.033 15.1269L127.426 9.06417L125.005 15.1269H130.036H130.033Z" fill="white"/>
<path d="M0.249023 0.253906H36.5754V14.0671C36.5754 20.3804 34.2144 33.8163 18.5667 43.8161C18.5667 43.8161 1.551 36.6906 0.249023 14.0671V0.253906Z" fill="#A51C30"/>
<path d="M12.1918 22.0441C12.1018 22.0411 12.0208 22.0864 11.9578 22.1407C11.8348 22.2494 11.7598 22.4004 11.7538 22.4064C11.6158 22.6027 11.3248 22.651 11.0578 22.6419C10.7938 22.6329 10.5658 22.5725 10.5658 22.5725H10.5508H10.5358C10.1548 22.6993 9.9868 22.8623 9.91481 23.0042C9.87881 23.0737 9.86981 23.1371 9.86981 23.1824C9.86981 23.2186 9.87581 23.2337 9.87581 23.2458V24.6769C9.86081 24.7554 9.82481 24.8037 9.77381 24.8369C9.72281 24.8702 9.65381 24.8883 9.58481 24.8973C9.44681 24.9124 9.31482 24.8822 9.31482 24.8822C8.83782 24.7856 8.51083 24.8973 8.30683 25.0392C8.10584 25.1781 8.02484 25.3351 8.02184 25.3412C7.81784 25.6189 7.95284 26.0114 7.95284 26.0114C7.96484 26.0507 7.98284 26.0839 7.99784 26.1141V26.1201C8.18384 26.6213 8.86782 26.6183 8.86782 26.6183C9.11682 26.8055 9.55181 26.6817 9.55181 26.6817C9.68081 26.6817 9.75281 26.7361 9.79781 26.8025C9.82181 26.8961 9.80981 26.9867 9.80981 26.9867V26.9987V27.0078C9.81281 27.0259 9.82181 27.1105 9.82781 27.2312C9.83081 27.349 9.83381 27.506 9.83381 27.6871C9.83381 28.0495 9.83381 28.5114 9.83381 28.9643C9.82481 29.8701 9.80981 30.7457 9.80981 30.7457C9.80981 31.0506 9.74981 31.2318 9.74981 31.2318V31.2378V31.2469C9.74981 31.262 9.74381 31.271 9.72881 31.2831C9.71081 31.2952 9.68081 31.3103 9.64181 31.3224C9.56381 31.3435 9.44981 31.3526 9.33582 31.3526C9.10782 31.3526 8.87682 31.3224 8.87682 31.3224H8.87082H8.86482C8.21683 31.3888 8.01884 31.9715 8.01584 31.9775C7.96484 32.1013 7.96784 32.2221 8.00384 32.3338C8.02184 32.3882 8.04584 32.4425 8.07584 32.4938C8.18984 32.7777 8.49883 32.9981 8.49883 32.9981C8.49883 33.1219 9.67781 33.1853 9.67781 33.1853C9.74981 33.2034 9.79781 33.2547 9.83381 33.3151C9.83681 33.3272 9.84281 33.3362 9.84581 33.3483C9.87581 33.457 9.87581 33.5597 9.87581 33.5597C9.86681 33.5929 9.86381 33.6291 9.86081 33.6834C9.86081 33.7438 9.85781 33.8193 9.86081 33.9038C9.86081 34.0729 9.87281 34.2782 9.88481 34.4775C9.90881 34.8761 9.93881 35.2504 9.93881 35.2504V35.2565C9.94481 35.2957 9.9658 35.332 9.9898 35.3622V35.3742C10.0528 35.7486 11.2318 35.6248 11.2318 35.6248C11.2318 35.6248 15.3657 35.5282 16.4847 35.5463C16.6437 35.5463 16.7427 35.5554 16.7577 35.5614C16.8807 35.5614 17.1927 35.498 17.1927 35.498L17.6277 35.812C17.8017 35.9479 17.9847 35.9872 18.1497 35.9781C18.1827 35.9781 18.2157 35.9721 18.2487 35.966C18.5667 35.9087 18.8097 35.6882 18.8097 35.6882L19.4306 35.5645C19.5536 35.5645 24.5846 35.501 24.5846 35.501C25.0195 35.6248 25.2055 35.4376 25.2055 35.4376L26.0125 35.3742C26.0425 35.3742 26.0725 35.3742 26.0995 35.3682C26.2975 35.332 26.3995 35.1719 26.4505 35.018C26.4655 34.9878 26.4835 34.9576 26.4955 34.9244C26.5615 34.7432 26.5585 34.5621 26.5585 34.5621V33.5053C26.5675 33.4208 26.5885 33.3574 26.6095 33.297C26.7235 33.0947 26.8825 33.0615 26.8825 33.0615L27.6265 32.9347L28.0015 32.7475C28.1455 32.7112 28.2205 32.6116 28.2625 32.4878C28.2745 32.4697 28.2865 32.4546 28.2955 32.4365C28.3465 32.3278 28.3615 32.198 28.3615 32.0772C28.3615 31.8326 28.2985 31.6092 28.2985 31.6092V31.6032V31.5971C28.1635 31.3224 27.8485 31.2106 27.5785 31.1623C27.3085 31.114 27.0685 31.1291 27.0685 31.1291C26.7685 31.1593 26.6575 31.0718 26.6065 30.9902C26.5555 30.9057 26.5675 30.8151 26.5675 30.8151L26.6305 26.9384C26.6545 26.7934 26.6965 26.6787 26.7385 26.5821C26.7865 26.4885 26.8285 26.4311 26.8285 26.4311C27.0145 26.4945 27.6355 26.3043 27.6355 26.3043C27.9925 26.2681 28.1395 26.0477 28.2055 25.8665C28.2115 25.8544 28.2205 25.8454 28.2235 25.8333C28.3045 25.6612 28.3045 25.5012 28.3045 25.4951C28.3375 25.2506 28.1695 25.0483 28.0015 24.9094C27.8335 24.7705 27.6565 24.692 27.6565 24.692L27.6475 24.686H26.7745C26.7505 24.6799 26.7295 24.6679 26.7115 24.6407C26.6905 24.6135 26.6695 24.5712 26.6545 24.5199C26.6245 24.4203 26.6125 24.2844 26.6065 24.1485C26.5975 23.8798 26.6305 23.6172 26.6305 23.6172V23.1099C26.6305 22.8654 26.4595 22.6963 26.2945 22.5906C26.1295 22.4849 25.9705 22.4366 25.9705 22.4366H25.9645H24.8575C24.8335 22.3943 24.8035 22.3551 24.7615 22.3279C24.7076 22.2917 24.6416 22.2645 24.5816 22.2464C24.4586 22.2041 24.3476 22.189 24.3476 22.189C24.1466 22.1256 23.8436 22.1256 23.8436 22.1256H23.8286L23.8166 22.1347C23.4296 22.4034 22.7516 22.5181 22.1726 22.5544C21.5936 22.5936 21.1166 22.5634 21.1166 22.5634L19.1696 22.4366L19.1516 22.4517C19.1516 22.4517 19.1456 22.4547 19.1246 22.4638C19.1036 22.4698 19.0766 22.4789 19.0436 22.4849C18.9776 22.5 18.8967 22.5121 18.8157 22.5242C18.6537 22.5483 18.4977 22.5634 18.4977 22.5634H18.4647L18.4527 22.5966C18.3987 22.7597 18.2367 22.814 18.2367 22.814L18.0657 22.8714C17.9517 22.7748 17.7747 22.6993 17.6067 22.648C17.4297 22.5936 17.2827 22.5634 17.2767 22.5634C17.2767 22.5634 17.2767 22.5634 17.2737 22.5634C17.2677 22.5634 17.2617 22.5604 17.2557 22.5574C17.2467 22.5574 17.2347 22.5544 17.2227 22.5513C17.1987 22.5513 17.1657 22.5483 17.1237 22.5483C17.0427 22.5483 16.9347 22.5483 16.8027 22.5544C16.5417 22.5634 16.2027 22.5785 15.8637 22.5997C15.1887 22.6389 14.5227 22.6872 14.5197 22.6872C13.7487 22.7174 13.2297 22.5936 12.9028 22.4638C12.5758 22.334 12.4468 22.2011 12.4468 22.2011C12.3658 22.0894 12.2728 22.0351 12.1858 22.029L12.1918 22.0441ZM12.1888 22.1437C12.2428 22.1437 12.3058 22.177 12.3778 22.2766V22.2826C12.3778 22.2826 12.5278 22.4306 12.8698 22.5664C13.2117 22.7023 13.7457 22.8291 14.5287 22.7959H14.5317C14.5317 22.7959 15.1977 22.7476 15.8727 22.7084C16.2087 22.6902 16.5507 22.6721 16.8087 22.6631C16.9377 22.66 17.0487 22.657 17.1267 22.657C17.1657 22.657 17.1957 22.657 17.2167 22.66C17.2257 22.66 17.2317 22.66 17.2347 22.66L17.2497 22.6661C17.2497 22.6661 17.4027 22.6963 17.5797 22.7506C17.7567 22.805 17.9547 22.8865 18.0327 22.965L18.0537 22.9861L18.2697 22.9137C18.2697 22.9137 18.4017 22.8352 18.4917 22.6993C18.4227 22.8684 18.2517 22.9257 18.2517 22.9257L18.0657 23.0525C17.8797 22.8654 17.2587 22.7385 17.2587 22.7385C17.1957 22.6751 14.5257 22.8623 14.5257 22.8623C12.9748 22.9257 12.4138 22.3642 12.4138 22.3642C12.1048 21.9264 11.7928 22.5513 11.7928 22.5513C11.4838 22.9891 10.5508 22.7385 10.5508 22.7385C10.2058 22.8533 10.0528 22.9952 9.9808 23.116C9.9868 23.0948 9.9928 23.0707 10.0048 23.0435C10.0588 22.9348 10.2028 22.7899 10.5598 22.6661C10.5808 22.6721 10.7878 22.7265 11.0548 22.7355C11.3338 22.7446 11.6638 22.6993 11.8348 22.4547V22.4487C11.8348 22.4487 11.9098 22.2977 12.0148 22.2072C12.0688 22.1619 12.1228 22.1317 12.1798 22.1347L12.1888 22.1437ZM23.8586 22.2404C23.8796 22.2404 24.1616 22.2434 24.3266 22.2977H24.3326H24.3356C24.3356 22.2977 24.4406 22.3128 24.5516 22.3491C24.6086 22.3672 24.6656 22.3913 24.7076 22.4185C24.7136 22.4215 24.7195 22.4276 24.7255 22.4336C24.5756 22.34 24.3416 22.3068 24.3416 22.3068C24.1556 22.2434 23.8436 22.2434 23.8436 22.2434C23.0366 22.805 21.1106 22.6812 21.1106 22.6812L19.1846 22.5544C19.1246 22.6148 18.5217 22.6782 18.5097 22.6782C18.5097 22.6751 18.5157 22.6691 18.5187 22.6661C18.5277 22.6661 18.6687 22.651 18.8307 22.6268C18.9117 22.6148 18.9956 22.6027 19.0646 22.5876C19.1006 22.5785 19.1306 22.5725 19.1546 22.5634C19.1696 22.5574 19.1816 22.5513 19.1936 22.5453L21.1076 22.6691C21.1076 22.6691 21.5936 22.7023 22.1786 22.6631C22.7576 22.6238 23.4356 22.5212 23.8586 22.2343V22.2404ZM24.8335 22.5513H25.9495C25.9495 22.5513 26.0425 22.5876 26.1445 22.6419C26.0395 22.5906 25.9585 22.5634 25.9585 22.5634H24.8395C24.8395 22.5634 24.8365 22.5574 24.8335 22.5513ZM26.1655 22.651C26.1925 22.6661 26.2135 22.6721 26.2405 22.6902C26.2495 22.6963 26.2555 22.7023 26.2615 22.7084C26.2285 22.6872 26.1955 22.6691 26.1625 22.651H26.1655ZM26.6065 24.6769C26.6065 24.6769 26.6185 24.7011 26.6275 24.7132C26.6605 24.7554 26.7025 24.7886 26.7535 24.7977H26.7595H27.6205C27.6265 24.8007 27.7825 24.8732 27.9355 24.997C28.0435 25.0845 28.1365 25.1932 28.1815 25.317C28.0705 25.1359 27.8665 25 27.7405 24.9275C27.6775 24.8913 27.6325 24.8732 27.6325 24.8732H26.7655C26.6905 24.8581 26.6395 24.7826 26.6065 24.6769ZM9.90581 24.8671C9.74981 25.163 9.31482 25.0604 9.31482 25.0604C8.38483 24.8732 8.07284 25.4982 8.07284 25.4982C8.06384 25.5102 8.06084 25.5223 8.05184 25.5344C8.06684 25.4891 8.08484 25.4438 8.11484 25.4046L8.12084 25.3985C8.12084 25.3985 8.19284 25.2536 8.37583 25.1298C8.55883 25.003 8.85282 24.8973 9.30582 24.9909C9.30582 24.9909 9.44981 25.0241 9.60881 25.006C9.68681 24.997 9.77081 24.9788 9.84281 24.9305C9.86681 24.9154 9.88781 24.8943 9.90581 24.8732V24.8671ZM26.5255 31.0567C26.6005 31.1714 26.7625 31.271 27.0775 31.2378C27.0775 31.2378 27.3055 31.2227 27.5635 31.268C27.8185 31.3133 28.0945 31.419 28.2085 31.6454C28.2085 31.6454 28.2145 31.6786 28.2175 31.6877C27.9265 31.2559 27.0745 31.3103 27.0745 31.3103C26.6695 31.3526 26.5555 31.1805 26.5255 31.0567ZM9.81881 31.3495L9.81281 31.3737C9.81281 31.4039 9.79781 31.4311 9.77381 31.4522C9.74981 31.4733 9.71081 31.4884 9.66881 31.5005C9.40781 31.5699 8.88282 31.5005 8.88282 31.5005C8.43283 31.5458 8.21383 31.8507 8.12384 32.0168C8.12384 32.0168 8.29783 31.4884 8.88582 31.428C8.89782 31.428 9.11682 31.4582 9.34782 31.4582C9.46781 31.4582 9.58481 31.4522 9.68081 31.425C9.72881 31.4129 9.77081 31.3948 9.80681 31.3677C9.81281 31.3646 9.81581 31.3556 9.81881 31.3526V31.3495ZM14.1447 4.69531L14.1267 4.71041C13.1577 5.50146 11.7508 5.13915 11.7508 5.13915H11.7448H11.7388C10.3708 5.13915 9.9298 5.20255 9.9298 5.20255H9.91181L9.89981 5.22067C9.75881 5.39277 9.58481 5.38975 9.43181 5.34446C9.28182 5.30219 9.17082 5.21765 9.16482 5.21463C9.13782 5.17236 9.09282 5.15122 9.04482 5.13311C8.99082 5.11499 8.92782 5.10292 8.86782 5.09386C8.74783 5.07876 8.63683 5.07574 8.63683 5.07574H8.63383C7.27185 5.16934 6.41987 5.09084 5.91587 4.9912C5.66388 4.93987 5.49588 4.88553 5.39088 4.84326C5.28888 4.80099 5.25289 4.77381 5.25289 4.77381L5.25889 4.77985C5.23789 4.75872 5.21989 4.75268 5.19589 4.74664C5.17189 4.7406 5.14489 4.73456 5.11789 4.72852C5.06089 4.71947 4.99189 4.71343 4.92289 4.71041C4.78789 4.70135 4.6619 4.70135 4.6619 4.70135H4.6289L4.6139 4.72852C4.5599 4.83722 4.3919 5.06668 4.3799 5.08178C4.3709 5.08178 4.3559 5.08782 4.3259 5.09386C4.2899 5.09688 4.2449 5.0999 4.1939 5.10292C4.09191 5.10593 3.96291 5.10292 3.83991 5.10292C3.59391 5.09386 3.35992 5.07876 3.35992 5.07876C3.10192 5.07876 2.94593 5.1633 2.85893 5.25086C2.77193 5.33842 2.75093 5.43202 2.75093 5.43202L2.68793 6.63067C2.71793 7.00506 2.68193 7.15603 2.65493 7.19528C2.64293 7.21641 2.64293 7.21037 2.64293 7.21037L2.60093 7.1832L2.57093 7.22547C2.55593 7.24963 2.49293 7.28284 2.40593 7.30095C2.31894 7.31907 2.20794 7.33115 2.10294 7.33417C1.88994 7.34322 1.68895 7.32813 1.68895 7.32813H1.68295H1.67695C1.50895 7.34624 1.38295 7.42776 1.29295 7.53948C1.20596 7.65119 1.15196 7.78706 1.11896 7.92293C1.05596 8.18862 1.07096 8.44526 1.07096 8.44526V8.4513C1.10396 8.62038 1.19996 8.74115 1.31995 8.81663C1.43995 8.89211 1.58395 8.92835 1.71895 8.94646C1.98594 8.97665 2.21994 8.93438 2.23194 8.93137C2.56193 8.96156 2.68193 9.06421 2.72693 9.14875C2.77193 9.23027 2.74493 9.30274 2.74493 9.30274V9.30878V9.31783C2.74493 9.44766 2.75993 10.4742 2.77793 11.4736C2.79293 12.47 2.80793 13.4271 2.80793 13.4361C2.79293 13.569 2.75693 13.6535 2.71493 13.7049C2.67293 13.7562 2.62493 13.7803 2.57693 13.7894C2.47793 13.8105 2.38194 13.7713 2.38194 13.7713L2.37294 13.7652H2.36394C1.66795 13.7652 1.34995 14.0098 1.21796 14.2604C1.08596 14.511 1.13396 14.7586 1.13696 14.7616C1.16996 15.2145 1.45495 15.4258 1.72195 15.5074C1.99194 15.5889 2.24694 15.5557 2.24694 15.5557H2.24094C2.57393 15.5557 2.70893 15.6462 2.76593 15.7217C2.82293 15.8002 2.81093 15.8697 2.81093 15.8697V15.8848L2.81693 15.8999C2.81693 15.8968 2.82293 15.9331 2.82593 15.9784C2.82593 16.0267 2.82893 16.0901 2.82593 16.1625C2.82593 16.3075 2.81393 16.4916 2.80193 16.6698C2.77793 17.0291 2.74793 17.3703 2.74793 17.3703V17.3823C2.81393 17.7416 3.02092 17.8896 3.20692 17.9318C3.37792 17.9711 3.52192 17.9318 3.54292 17.9258L8.49883 18.0526C9.20682 18.5719 9.66281 18.587 9.9358 18.4451C10.1968 18.3093 10.2658 18.0677 10.2748 18.0375L10.3618 18.0496C10.4158 18.0587 10.5268 18.0647 10.6858 18.0677C10.8448 18.0707 11.0518 18.0738 11.2888 18.0768C11.7628 18.0798 12.3598 18.0768 12.9508 18.0768C13.5417 18.0738 14.1237 18.0677 14.5677 18.0617C15.0087 18.0556 15.3087 18.0526 15.3387 18.0526H15.3417C15.5457 18.0979 15.7047 18.0888 15.8277 18.0405C15.9537 17.9922 16.0377 17.9077 16.0917 17.8171C16.1997 17.639 16.1997 17.4427 16.1997 17.4397L16.2627 15.9482C16.2867 15.8516 16.3947 15.7791 16.5027 15.7338C16.6077 15.6915 16.7037 15.6764 16.7127 15.6764C17.4027 15.767 17.7387 15.5225 17.8887 15.2507C18.0357 14.979 18.0027 14.6861 18.0027 14.6831C17.9697 14.2272 17.7027 14.0038 17.4507 13.9041C17.1987 13.8045 16.9557 13.8226 16.9557 13.8226H16.9587C16.6287 13.8226 16.4787 13.7049 16.4007 13.5931C16.3257 13.4814 16.3257 13.3757 16.3257 13.3727C16.3437 13.264 16.3527 12.9923 16.3617 12.627C16.3707 12.2586 16.3767 11.7997 16.3797 11.3558C16.3887 10.4652 16.3887 9.62278 16.3887 9.62278C16.3887 9.5473 16.4307 9.42351 16.4787 9.32387C16.5177 9.23631 16.5477 9.188 16.5567 9.16989C16.9377 9.20914 17.2317 9.18499 17.4357 9.11252C17.6487 9.03704 17.7807 8.91023 17.8557 8.7804C18.0057 8.52074 17.9397 8.24901 17.9367 8.24297C17.9637 8.00746 17.9307 7.82933 17.8467 7.70856C17.7627 7.58175 17.6397 7.5123 17.5137 7.47305C17.2737 7.40059 17.0337 7.44588 17.0187 7.4489C16.5927 7.4489 16.4487 7.33115 16.3977 7.22547C16.3467 7.12282 16.3857 7.01714 16.3857 7.01714V7.0111V7.00506C16.4787 6.40725 16.4487 5.9936 16.3917 5.72791C16.3347 5.46221 16.2507 5.34144 16.2507 5.34144L16.2447 5.3354L16.2357 5.32936C16.1727 5.28709 16.0797 5.272 15.9687 5.25992C15.8577 5.24784 15.7287 5.24482 15.6087 5.24482C15.3657 5.24482 15.1467 5.25992 15.1467 5.25992H15.1317L15.1197 5.26898C15.0747 5.30219 15.0267 5.29917 14.9607 5.26596C14.8947 5.23274 14.8197 5.16934 14.7507 5.09688C14.6157 4.95195 14.5077 4.78589 14.5077 4.78589L14.4957 4.76778L14.1387 4.69531H14.1447ZM31.7184 4.69531L31.7004 4.71041C30.7314 5.50146 29.3245 5.13915 29.3245 5.13915H29.3185H29.3125C28.0075 5.13915 27.5665 5.20255 27.5665 5.20255H27.5485L27.5365 5.22067C27.3955 5.39277 27.2215 5.38975 27.0685 5.34446C26.9215 5.30219 26.8105 5.22067 26.8015 5.21463C26.7745 5.17236 26.7295 5.1482 26.6785 5.13311C26.6245 5.11499 26.5615 5.10292 26.5015 5.09386C26.3815 5.07876 26.2705 5.07574 26.2705 5.07574H26.2675C24.9055 5.16934 24.0536 5.09084 23.5496 4.9912C23.2976 4.93987 23.1296 4.88553 23.0246 4.84326C22.9226 4.80099 22.8866 4.77381 22.8866 4.77381L22.8926 4.77985C22.8716 4.75872 22.8536 4.75268 22.8296 4.74664C22.8056 4.7406 22.7816 4.73456 22.7516 4.72852C22.6946 4.71947 22.6226 4.71343 22.5566 4.71041C22.4216 4.70135 22.2986 4.70135 22.2986 4.70135H22.2656L22.2506 4.72852C22.1966 4.83722 22.0286 5.06668 22.0166 5.0848C22.0076 5.0848 21.9926 5.09084 21.9626 5.09386C21.9266 5.09688 21.8846 5.0999 21.8306 5.10292C21.7286 5.10593 21.5996 5.10292 21.4766 5.10292C21.2306 5.09386 20.9966 5.07876 20.9966 5.07876C20.7086 5.07876 20.5376 5.16028 20.4416 5.24784C20.3456 5.3354 20.3246 5.43202 20.3246 5.43202V6.6971C20.3546 7.03526 20.3156 7.17112 20.2946 7.20132C20.2826 7.21641 20.2856 7.21037 20.2826 7.21037H20.2796L20.2376 7.1832L20.2076 7.22547C20.1926 7.24963 20.1296 7.28284 20.0426 7.30095C19.9556 7.31907 19.8446 7.33115 19.7366 7.33417C19.5236 7.34322 19.3226 7.32813 19.3226 7.32813H19.3196H19.3136C19.1306 7.34624 18.9926 7.42474 18.8967 7.53646C18.7977 7.64817 18.7407 7.78706 18.7047 7.91991C18.6327 8.18862 18.6477 8.44526 18.6477 8.44526V8.4513C18.6807 8.62038 18.7767 8.74115 18.8967 8.81663C19.0166 8.89211 19.1576 8.92835 19.2956 8.94646C19.5626 8.97665 19.7966 8.93438 19.8086 8.93137C20.1386 8.96156 20.2586 9.06421 20.3036 9.14875C20.3486 9.23027 20.3246 9.30274 20.3246 9.30274C20.3126 9.35406 20.3096 9.43559 20.3066 9.56542C20.3036 9.69524 20.3006 9.87036 20.2976 10.0696C20.2976 10.4682 20.2976 10.9784 20.2976 11.4766C20.3066 12.473 20.3216 13.4301 20.3216 13.4392C20.3066 13.572 20.2706 13.6565 20.2286 13.7079C20.1866 13.7592 20.1386 13.7834 20.0906 13.7924C19.9916 13.8135 19.8956 13.7743 19.8956 13.7743L19.8866 13.7683H19.8746C19.1786 13.7683 18.8607 14.0128 18.7287 14.2634C18.5967 14.514 18.6447 14.7616 18.6477 14.7646C18.6807 15.2175 18.9656 15.4289 19.2326 15.5104C19.5026 15.5919 19.7576 15.5587 19.7576 15.5587H19.7516C20.0516 15.5587 20.1866 15.6462 20.2556 15.7278C20.3216 15.8093 20.3216 15.8818 20.3216 15.8818V15.8938L20.3276 15.9059C20.3276 15.9059 20.3336 15.9391 20.3366 15.9844C20.3366 16.0327 20.3366 16.0961 20.3366 16.1686C20.3366 16.3135 20.3246 16.4977 20.3126 16.6758C20.2886 17.0351 20.2586 17.3763 20.2586 17.3763V17.3823V17.3884C20.3246 17.7477 20.5316 17.8956 20.7176 17.9379C20.8886 17.9771 21.0326 17.9379 21.0536 17.9318L26.0095 18.0587C26.7175 18.578 27.1735 18.5931 27.4465 18.4512C27.7105 18.3153 27.7945 18.0556 27.8035 18.0315C27.8245 17.9862 27.8725 17.9681 27.8965 17.9681C27.9085 17.9681 27.9085 17.9681 27.9055 17.9681C27.9055 17.9651 27.9055 17.9681 27.8965 17.9892L27.8665 18.0526L27.9355 18.0647C27.9895 18.0738 28.1005 18.0798 28.2595 18.0828C28.4185 18.0858 28.6255 18.0888 28.8625 18.0919C29.3365 18.0949 29.9335 18.0919 30.5245 18.0919C31.1154 18.0888 31.6974 18.0828 32.1384 18.0768C32.5794 18.0707 32.8884 18.0677 32.9154 18.0677C33.1344 18.113 33.2994 18.1009 33.4254 18.0556C33.5544 18.0073 33.6384 17.9228 33.6894 17.8322C33.7914 17.6511 33.7734 17.4488 33.7734 17.4488V17.4548L33.8364 15.9633C33.8604 15.8667 33.9654 15.7942 34.0764 15.7489C34.1844 15.7066 34.2804 15.6946 34.2864 15.6915C34.9764 15.7821 35.3124 15.5376 35.4624 15.2628C35.6094 14.9911 35.5764 14.6982 35.5764 14.6952C35.5434 14.2393 35.2764 14.0128 35.0244 13.9162C34.7724 13.8166 34.5294 13.8347 34.5294 13.8347H34.5354C34.1754 13.8347 34.0254 13.7169 33.9594 13.6082C33.8904 13.4995 33.9054 13.3908 33.9054 13.3908V13.3848C33.9054 13.0165 33.9684 9.63486 33.9684 9.63486C33.9684 9.55636 34.0104 9.43257 34.0584 9.33595C34.0974 9.24839 34.1304 9.20008 34.1394 9.18197C34.5204 9.22122 34.8144 9.19706 35.0184 9.1246C35.2314 9.04912 35.3634 8.92231 35.4384 8.79248C35.5884 8.53282 35.5224 8.26108 35.5194 8.25505C35.5464 8.01954 35.5104 7.8414 35.4294 7.72063C35.3454 7.59382 35.2224 7.52438 35.0964 7.48513C34.8534 7.41267 34.6134 7.45796 34.6014 7.46097C34.1754 7.46097 34.0314 7.34322 33.9804 7.23755C33.9294 7.13489 33.9684 7.02922 33.9684 7.02922V7.02016C34.0644 6.42234 34.0344 6.0087 33.9774 5.743C33.9204 5.47731 33.8364 5.35654 33.8364 5.35654L33.8304 5.3505L33.8244 5.34446C33.7614 5.30219 33.6684 5.28709 33.5574 5.27501C33.4464 5.26294 33.3174 5.25992 33.1974 5.25992C32.9544 5.25992 32.7354 5.27501 32.7354 5.27501H32.7204L32.7084 5.28407C32.6634 5.31728 32.6184 5.31427 32.5494 5.28105C32.4834 5.24784 32.4084 5.18444 32.3394 5.11197C32.2044 4.96705 32.0994 4.80099 32.0994 4.80099L32.0874 4.78287L31.7304 4.71041L31.7184 4.69531Z" fill="black"/>
<path d="M18.5037 44L18.3807 43.9366C18.2577 43.8732 1.30498 36.5001 0 14.0638V0H36.7614V14.0004C36.7614 19.5015 35.0214 33.4989 18.6297 43.8732L18.5067 43.997L18.5037 44ZM0.434992 0.437796V14.0004C1.67697 35.2501 17.0757 42.8738 18.5067 43.4988C34.5894 33.188 36.3294 19.4381 36.3294 14.0004V0.437796H0.434992Z" fill="black"/>
<path d="M5.46291 5.254C5.46291 5.254 5.09091 5.254 5.15391 5.5046L5.03091 15.0033C5.03091 15.0033 5.03091 15.4411 5.7149 15.5045C5.7149 15.5045 6.58489 15.5679 6.77088 15.5045H8.75985C8.75985 15.5045 9.13184 15.8788 9.13184 15.4411C9.13184 15.4411 9.38084 7.75396 9.25484 6.12959C9.25484 6.12959 9.25484 5.44119 8.69685 5.44119C8.69685 5.44119 6.46189 5.62839 6.27589 5.44119L5.46891 5.254H5.46291ZM14.0848 5.26607C14.0038 5.26003 13.8718 5.28117 13.6618 5.37477C13.6618 5.37477 13.7248 5.62537 10.9318 5.50158C10.8688 5.50158 9.81283 5.50158 9.75283 5.93937C9.75283 5.93937 9.68983 10.4381 9.68983 10.5649L9.62684 14.3149L9.56384 15.6282C9.56384 15.6282 9.74983 15.8789 9.87283 15.6917C9.87283 15.6917 10.8028 15.4411 11.4238 15.5679C11.4238 15.5679 13.2868 15.7551 13.7218 15.4411C13.7218 15.4411 14.0308 15.5648 14.0938 15.1301C14.0938 15.1301 14.2168 6.81798 14.1568 6.69419C14.1568 6.69419 14.2798 5.50762 14.2198 5.38081C14.2198 5.38081 14.2198 5.28419 14.0848 5.27211V5.26607ZM3.84593 5.50158C3.72294 5.5046 3.54594 5.5831 3.29094 5.81558L3.22795 7.06557C3.22795 7.06557 3.22795 7.75396 2.60696 7.69056C2.60696 7.69056 1.92297 7.69056 1.55097 8.00154C1.55097 8.00154 1.36498 8.62653 2.04897 8.56313C2.04897 8.56313 3.10495 8.56313 3.16795 9.00093L3.10495 13.4997C3.10495 13.4997 3.35394 14.2515 2.54696 14.2515C2.54696 14.2515 1.55097 14.1881 1.55097 14.813C1.55097 14.813 1.73697 15.3142 2.60696 15.1905C2.60696 15.1905 3.22795 15.3142 3.16495 15.8789V17.002C3.16495 17.002 3.10195 17.4398 3.72294 17.5032H8.31886C8.31886 17.5032 8.56785 17.5032 8.56785 17.2526C8.56785 17.2526 8.56785 17.002 8.19586 17.002L4.40693 16.8782C4.40693 16.8782 3.78594 17.0654 3.72294 16.1295C3.72294 16.1295 3.78294 8.1042 3.78594 7.75094V7.75396C3.78594 7.75396 3.78594 7.72377 3.78594 7.72075C3.78594 7.71773 3.78594 7.63017 3.78594 7.62715C3.78594 7.62715 3.78594 7.62715 3.78594 7.62111C3.77994 7.31315 3.77694 6.2262 4.09793 5.68877C4.09793 5.68877 4.04993 5.49252 3.84593 5.49856V5.50158ZM15.6057 5.52271C15.3387 5.54687 15.3387 5.87597 15.3387 5.87597C15.4617 5.99976 15.5247 6.43755 15.5247 6.43755C15.5877 7.43694 15.5247 8.56313 15.5247 9.62592C15.4617 13.1887 15.3387 16.4374 15.3387 16.4374C15.3387 17.1258 14.9667 16.9356 14.9667 16.9356H10.8658C10.4308 16.9356 10.4308 17.1862 10.4308 17.1862C10.4938 17.5606 10.8658 17.4368 10.8658 17.4368C11.2378 17.5002 15.3387 17.4368 15.3387 17.4368C15.9597 17.5002 15.8967 16.685 15.8967 16.685C15.9597 15.2478 16.0827 15.124 16.0827 15.124C16.2057 15.0606 16.8897 15.0606 16.8897 15.0606C18.0087 15.124 17.5107 14.3722 17.5107 14.3722C17.3877 14.185 16.6407 14.185 16.6407 14.185C15.9567 14.2484 16.0197 13.4966 16.0197 13.4966L16.0827 9.1851C15.9597 8.81071 16.2687 8.62351 16.2687 8.62351H16.9527C17.8827 8.68692 17.6367 8.06193 17.6367 8.06193C17.6367 7.75094 16.8297 7.62413 16.8297 7.62413C16.0857 7.74792 16.1457 7.31315 16.1457 7.31315V6.25036C16.2687 5.56196 15.8367 5.56196 15.8367 5.56196C15.7437 5.52573 15.6687 5.51365 15.6087 5.51969L15.6057 5.52271ZM14.7267 5.6616C14.6487 5.67368 14.5618 5.73708 14.4658 5.87597V15.2508C14.4658 15.2508 14.7147 16.063 15.0867 15.9996C15.0867 15.9996 15.1497 15.8124 15.1497 15.5014L15.2757 6.56436C15.2757 6.56436 15.0717 5.61631 14.7267 5.6616ZM4.71892 5.75218C4.16093 5.75218 4.09793 6.81496 4.09793 6.81496L4.03493 15.6886C4.09793 16.1264 4.22093 16.063 4.22093 16.063C4.77892 15.6886 4.71892 15.0636 4.71892 15.0636C4.71892 15.0636 4.78192 6.62777 4.78192 6.50096C4.78192 6.37415 4.71892 5.74916 4.71892 5.74916V5.75218ZM4.97692 15.749C4.94992 15.749 4.91992 15.7551 4.88992 15.7641C4.76692 15.8003 4.61392 15.906 4.48492 16.1657V16.1717L4.48192 16.1778C4.48192 16.1778 4.44592 16.2955 4.47292 16.4072C4.48792 16.4646 4.52392 16.525 4.58992 16.5552C4.65292 16.5854 4.73692 16.5854 4.84792 16.5552H7.88087L8.69385 16.7454H8.70585C8.70585 16.7454 8.76285 16.7303 8.83485 16.7031C8.90685 16.6759 8.99385 16.6367 9.05685 16.5733C9.08984 16.5401 9.11684 16.5008 9.12584 16.4525C9.13784 16.4042 9.13184 16.3499 9.10784 16.2985C9.05985 16.1929 8.94285 16.0842 8.72085 15.9574L8.70885 15.9513H5.7809C5.7809 15.9513 5.6429 15.9211 5.49291 15.8819C5.33991 15.8426 5.16291 15.7913 5.11491 15.7671C5.11491 15.7671 5.06091 15.746 4.98292 15.749H4.97692ZM14.2048 15.9121C14.0308 15.903 13.7878 15.9392 13.7878 15.9392C13.2898 16.2502 10.3708 16.0026 10.3708 16.0026C10.1848 16.0026 9.93583 16.3136 9.93583 16.3136C9.87283 16.8752 10.8058 16.6276 10.7428 16.6276H14.2198C14.7777 16.7514 14.7777 16.5038 14.7777 16.5038C14.7777 16.3166 14.3428 15.9423 14.3428 15.9423C14.3128 15.9272 14.2618 15.9181 14.2018 15.9151L14.2048 15.9121ZM9.60884 16.6125C9.59384 16.6125 9.57584 16.6186 9.56084 16.6246C9.56084 16.6246 9.00285 16.6246 9.00285 17.3764C9.00285 17.3764 9.06585 17.938 9.62384 17.938C9.62384 17.938 10.1218 17.8142 10.1218 17.2496C10.1218 17.2496 9.84883 16.5914 9.60884 16.6125ZM22.9766 5.25098C22.9766 5.25098 22.6046 5.25098 22.6646 5.50158L22.5416 15.0002C22.5416 15.0002 22.5416 15.438 23.2256 15.5014C23.2256 15.5014 24.0956 15.5648 24.2816 15.5014H26.2675C26.2675 15.5014 26.6395 15.8758 26.6395 15.3746C26.6395 15.3746 26.8885 7.68754 26.7655 6.06316C26.7655 6.06316 26.7655 5.37477 26.2075 5.37477C26.2075 5.37477 23.9726 5.56196 23.7866 5.37477L22.9796 5.25098H22.9766ZM31.5715 5.32948C31.4995 5.3325 31.3915 5.36269 31.2355 5.43817C31.2355 5.43817 31.2985 5.68877 28.5025 5.56498C28.4395 5.56498 27.3235 5.50158 27.3235 6.00278C27.3235 6.00278 27.2605 10.5015 27.2605 10.6283L27.1975 14.3783L27.0745 15.6917C27.0745 15.6917 27.2605 15.9423 27.3865 15.7551C27.3865 15.7551 28.3165 15.5045 28.9375 15.6313C28.9375 15.6313 30.8005 15.8185 31.2355 15.5075C31.2355 15.5075 31.5445 15.6313 31.6075 15.1965C31.6075 15.1965 31.7305 6.88441 31.6705 6.76062C31.6705 6.76062 31.7965 5.57102 31.7335 5.44723C31.7335 5.44723 31.7335 5.32948 31.5715 5.33854V5.32948ZM21.2966 5.50158C21.1736 5.5046 20.9966 5.5831 20.7416 5.81558V7.00216C20.7416 7.00216 20.7416 7.69056 20.1207 7.62715C20.1207 7.62715 19.4367 7.62715 19.0647 7.93814C19.0647 7.93814 18.8787 8.56313 19.5597 8.49972C19.5597 8.49972 20.6156 8.49972 20.6786 8.93752L20.6156 13.4363C20.6156 13.4363 20.8646 14.185 19.9947 14.185C19.9947 14.185 19.0017 14.1216 19.0017 14.7466C19.0017 14.7466 19.1877 15.2478 20.0577 15.121C20.0577 15.121 20.6786 15.2478 20.6786 15.8094V16.9326C20.6786 16.9326 20.6156 17.3704 21.1766 17.4338H25.7696C25.7696 17.4338 26.0186 17.4338 26.0186 17.1832C26.0186 17.1832 26.0186 16.9326 25.6466 16.9326L21.9206 16.8692C21.9206 16.8692 21.2996 17.0564 21.2366 16.1204C21.2366 16.1204 21.2996 7.7449 21.2366 7.62111V7.74792C21.2366 7.74792 21.1736 6.31074 21.5486 5.68575C21.5486 5.68575 21.5006 5.4895 21.2966 5.49554V5.50158ZM33.1164 5.52271C32.8494 5.54687 32.8494 5.87597 32.8494 5.87597C32.9124 5.99976 33.0354 6.43755 33.0354 6.43755C33.0984 7.43694 33.0354 8.56313 33.0354 9.62592C32.9724 13.1887 32.8494 16.4374 32.8494 16.4374C32.8494 17.1258 32.4774 16.9356 32.4774 16.9356H28.3795C27.9445 16.9356 27.9445 17.1862 27.9445 17.1862C28.0075 17.5606 28.4425 17.4368 28.4425 17.3734C28.8145 17.4368 32.9124 17.3734 32.9124 17.3734C33.5334 17.4368 33.4704 16.6216 33.4704 16.6216C33.5334 15.1844 33.6564 15.0606 33.6564 15.0606C33.7794 14.9972 34.4634 14.9972 34.4634 14.9972C35.5194 15.0606 35.0214 14.3088 35.0214 14.3088C34.8984 14.1216 34.1514 14.1216 34.1514 14.1216C33.4674 14.185 33.5304 13.4332 33.5304 13.4332L33.5934 9.1217C33.4704 8.74731 33.7794 8.56011 33.7794 8.56011H34.4634C35.3934 8.62352 35.1474 7.99852 35.1474 7.99852C35.1474 7.68754 34.3404 7.56073 34.3404 7.56073C33.5964 7.68452 33.6564 7.24974 33.6564 7.24974V6.25036C33.7794 5.56196 33.3444 5.56196 33.3444 5.56196C33.2514 5.52573 33.1764 5.51365 33.1134 5.51969L33.1164 5.52271ZM32.2404 5.68575C32.1624 5.69179 32.0754 5.74916 31.9794 5.87597V15.2508C31.9794 15.2508 32.2284 16.063 32.6004 15.9996C32.6004 15.9996 32.6634 15.8124 32.6634 15.5014L32.7864 6.56436C32.7864 6.56436 32.5824 5.65858 32.2374 5.68575H32.2404ZM22.2296 5.75218C21.6716 5.75218 21.6086 6.81496 21.6086 6.81496L21.5456 15.6886C21.6086 16.1264 21.7316 16.063 21.7316 16.063C22.2896 15.6886 22.2296 15.0636 22.2296 15.0636C22.2296 15.0636 22.2926 6.62777 22.2926 6.50096C22.2926 6.37415 22.2296 5.74916 22.2296 5.74916V5.75218ZM22.5866 15.7369C22.4786 15.7339 22.2776 15.7822 22.1066 16.1264C22.1066 16.1264 21.9836 16.5642 22.4186 16.4374H25.4606L26.2675 16.6246C26.2675 16.6246 27.1375 16.4374 26.2675 15.9362H23.3486C23.3486 15.9362 22.7876 15.8094 22.6646 15.749C22.6646 15.749 22.6346 15.7369 22.5866 15.7369ZM31.7485 15.8487C31.5895 15.8517 31.4215 15.8758 31.4215 15.8758C30.9235 16.1868 28.0045 15.9392 28.0045 15.9392C27.8185 15.9392 27.5695 16.2502 27.5695 16.2502C27.4465 16.8118 28.3765 16.5612 28.3765 16.5612H31.8535C32.4114 16.685 32.4114 16.4374 32.4114 16.4374C32.4114 16.2502 31.9764 15.8758 31.9764 15.8758C31.9284 15.8517 31.8415 15.8456 31.7455 15.8487H31.7485ZM27.1855 16.5522C27.1705 16.5522 27.1525 16.5582 27.1375 16.5642C27.1375 16.5642 26.5795 16.5642 26.6395 17.313C26.6395 17.313 26.7025 17.8746 27.2605 17.8746C27.2605 17.8746 27.7585 17.8112 27.7585 17.1862C27.7585 17.1862 27.4315 16.528 27.1855 16.5491V16.5522ZM17.9457 28.6897C17.9457 28.6897 17.9457 29.3781 17.8827 30.0634C17.8197 30.4378 18.0057 32.189 17.8827 33.0646C17.8827 33.0646 17.8827 33.3786 17.2617 33.128C17.2617 33.128 13.4728 33.1914 13.4128 33.0646C13.4128 33.0646 12.3568 33.128 12.2938 32.5634C12.2938 32.5634 12.4168 28.4995 12.3568 28.3757C12.3568 28.3757 12.2938 26.1897 12.3568 25.9391C12.3568 25.9391 12.4198 23.8769 12.3568 23.6263C12.3568 23.6263 12.3568 23.1251 12.2938 22.9379C12.2938 22.9379 12.2938 22.6239 12.7918 22.8141C12.7918 22.8141 12.9778 23.1281 13.9108 23.0013C13.9108 23.0013 14.5947 23.1251 15.2757 23.0013C15.2757 23.0013 16.7667 22.8775 17.1387 23.0013C17.1387 23.0013 17.7597 22.8775 17.8827 23.5629V25.3745L18.0687 25.9995L18.2547 25.8757L18.3177 25.4379V23.4995C18.3177 23.4995 18.4407 23.1251 18.9387 23.0617C18.9387 23.0617 19.6827 22.9983 19.8087 23.0617C19.9347 23.1251 21.5486 23.1855 21.9806 23.1251C22.4156 23.0617 22.4786 23.4391 23.8436 22.7507C23.8436 22.7507 24.2156 22.7507 24.2156 23.0013C24.2156 23.0013 24.0926 25.5013 24.2156 26.0025C24.2156 26.0025 24.2156 30.628 24.0926 30.939L24.1556 32.4396C24.1556 32.4396 24.2186 33.0646 23.1626 33.128C23.1626 33.128 23.7836 33.1914 19.7457 33.0646C19.7457 33.0646 19.1247 33.0012 18.3807 33.3786C18.3807 33.3786 18.2577 33.3152 18.2577 32.9408C18.2577 32.9408 18.3807 31.567 18.2577 30.1902L18.1947 28.6897H17.9457ZM24.4676 32.7506C24.4676 32.7506 24.8396 33.439 24.9656 33.4994C24.9656 33.4994 25.2776 33.8738 25.2146 33.1854L25.2776 24.6227C25.2776 24.6227 25.2146 24.3087 25.2776 23.8739L24.9056 23.2489C24.9056 23.2489 24.5336 22.9349 24.5336 23.4361V32.497L24.4706 32.7476L24.4676 32.7506ZM12.1078 33.125C12.1078 33.125 12.5428 33.5628 13.2268 33.5628L17.2017 33.6262C17.2017 33.6262 17.6367 33.6896 17.6367 33.8768C17.6367 33.8768 17.5737 34.2512 17.0157 34.1274L12.1708 34.064L11.6128 34.1274C11.6128 34.1274 11.2408 34.064 11.7988 33.3786L12.1108 33.128L12.1078 33.125ZM11.2408 23.3153C11.2408 23.3153 10.8688 23.9403 10.9318 24.1275V34.0036C10.9318 34.0036 10.8688 34.692 11.4298 34.5048C11.4298 34.5048 16.5837 34.381 16.9557 34.5048C16.9557 34.5048 17.4537 34.5682 17.2677 34.8188C17.2677 34.8188 17.2677 35.006 16.9557 34.9426C16.9557 34.9426 14.5348 35.1932 12.2968 35.0664C12.2968 35.0664 10.8058 35.1298 10.7458 35.003C10.7458 35.003 10.4968 34.9396 10.4968 34.1274C10.4968 34.1274 10.4968 33.3152 10.4338 33.1914C10.4338 33.1914 10.4968 32.7536 9.74983 32.6902C9.74983 32.6902 8.69385 32.8774 8.69385 32.2524C8.69385 32.2524 8.81685 31.8146 9.87283 31.878C9.87283 31.878 10.6168 32.0018 10.4308 31.3768L10.4938 27.0019C10.4938 27.0019 10.6168 26.2531 10.0588 26.1897H9.43784C9.43784 26.1897 8.56785 26.1897 8.63085 25.6885C8.63085 25.6885 8.93985 25.1873 9.80983 25.2507C9.80983 25.2507 10.4308 25.3745 10.4938 24.6257C10.4938 24.6257 10.4938 23.1251 10.8028 23.0647C10.7398 23.0647 11.4868 23.1281 11.2378 23.3153M11.7358 23.2519C11.7358 23.2519 11.9218 23.2519 11.9218 23.6263L11.8588 32.5634C11.8588 32.5634 11.9218 33.125 11.4238 33.5628C11.4238 33.5628 11.1748 33.8768 11.1748 33.3756L11.2978 24.2513C11.2978 24.2513 11.2978 23.5629 11.7328 23.2519M18.6927 33.75C18.6927 33.75 19.1907 33.3756 19.4367 33.436C19.4367 33.436 22.1066 33.6232 22.9136 33.4994C23.7206 33.3756 23.2256 33.436 23.2256 33.436C23.2256 33.436 23.9096 33.436 24.1556 33.1854C24.1556 33.1854 24.3416 33.122 24.4676 33.3092L24.9026 33.8104C24.9026 33.8104 24.9026 34.1244 24.4046 34.061C24.4046 34.061 19.6227 34.061 19.4367 34.1244C19.4997 34.1244 18.6297 34.2482 18.6927 33.75ZM19.0017 34.5652C19.0017 34.5652 19.3737 34.378 19.6227 34.4414C19.8717 34.5048 23.2856 34.378 23.2856 34.378C23.2856 34.378 24.7766 34.5018 25.0256 34.2542L25.3976 34.1304C25.3976 34.1304 25.5206 33.9432 25.5206 33.6926V32.6298L25.5836 32.3158V24.1275C25.5836 24.1275 25.7066 23.5025 25.3346 23.1281C25.3346 23.1281 25.3346 22.8775 25.4576 22.941C25.5806 23.0044 25.5206 22.941 25.5206 22.941C25.5206 22.941 26.0186 22.8172 26.1415 23.0044C26.1415 23.0044 26.3905 23.6928 26.1415 24.1305C26.1415 24.1305 26.0785 25.0061 26.5135 25.0061C26.5135 25.0061 26.6995 25.1933 27.0115 25.0695C27.0115 25.0695 27.7555 25.133 27.7555 25.3836C27.7555 25.3836 27.7555 25.9451 27.2575 25.8213L26.5735 25.8848C26.5735 25.8848 26.0755 26.0085 26.1385 26.5097C26.2015 27.0713 26.1385 31.1353 26.1385 31.1353C26.1385 31.1353 26.1385 31.6365 26.8825 31.5731C26.8825 31.5731 27.8125 31.5097 27.8125 31.8237C27.8125 31.8237 28.0615 32.3853 27.3775 32.4487C27.3775 32.4487 26.1355 32.3853 26.2585 32.7627C26.2585 32.7627 26.1955 33.5749 26.1356 33.7621C26.1356 33.7621 26.2585 34.4505 26.1356 34.5742C26.1356 34.5742 26.0726 34.9486 25.2656 34.8883C25.2656 34.8883 20.2347 34.8883 19.4277 34.9517C19.3647 35.0754 18.8697 35.0151 18.9927 34.5773M18.1317 34.0006C18.1317 34.0006 18.6297 34.064 18.6297 34.5622C18.6297 35.0604 18.6297 35.311 18.3807 35.3744C18.0687 35.4378 17.7597 35.311 17.6967 34.9366C17.5737 34.5622 17.6967 34.1244 18.1317 34.0006Z" fill="white"/>
<path d="M8.87984 8.68924L8.63084 9.25083C8.63084 9.25083 8.00985 12.1252 7.63786 12.6868C7.63786 12.6868 7.57486 13.3118 7.07987 12.8106C7.07987 12.8106 5.90089 9.18441 5.83789 9.06062L5.4659 8.81002C5.4659 8.81002 5.2169 8.49903 5.65189 8.43562H6.77088C6.77088 8.43562 7.14287 8.74661 6.64788 9.06062C6.64788 9.06062 6.71088 9.56182 7.33187 11.3734C7.33187 11.3734 7.51786 12.0618 7.70386 11.5606L8.32485 9.43501L8.13885 8.81002C8.13885 8.81002 7.95286 8.49903 8.20185 8.49903C8.20185 8.49903 8.82284 8.43562 8.88584 8.68622M10.5568 9.18743V12.3124L10.4938 12.563C10.4938 12.563 10.1848 12.9374 10.4308 13.0008C10.4308 13.0008 10.1818 13.188 12.2938 13.188C12.2938 13.188 13.1008 13.3118 12.9148 12.252C12.9148 12.252 12.8518 11.8776 12.5428 12.4392C12.5428 12.4392 12.4798 12.9404 11.3638 12.7502C11.3638 12.7502 11.1148 12.563 11.1148 12.3124V10.999C11.1148 10.999 11.1148 10.688 11.6128 10.688C11.6128 10.688 12.1708 11.0624 12.2338 10.8752C12.2338 10.8752 12.4198 10.374 12.2338 10.1264C12.2338 10.1264 11.9848 10.1264 11.9248 10.1898C11.9248 10.1898 11.7388 10.5642 11.2408 10.3136C11.2408 10.3136 10.9918 9.81242 11.1778 9.43803C11.1778 9.43803 11.1148 8.68924 11.6128 8.74963C11.6128 8.74963 12.2338 8.87342 12.2338 9.06062C12.2338 9.06062 12.3568 9.43501 12.5428 8.99721L12.4198 8.55942C12.4198 8.55942 12.3568 8.37222 12.1708 8.43562C12.1708 8.43562 11.1778 8.55942 11.0518 8.43562L10.2448 8.49903C10.2448 8.49903 10.1218 8.81002 10.4938 8.93683C10.4938 9.00023 10.5568 9.06062 10.5568 9.18743ZM28.3795 8.68924C28.3165 8.43864 28.8775 8.43864 28.8775 8.43864L29.1895 8.50205C29.3755 8.50205 29.6245 8.56545 29.6245 8.56545C29.8105 8.87644 29.5015 9.06665 29.5015 9.06665L29.3785 9.44105V12.566C29.4415 12.6898 29.6905 13.0038 29.6905 13.0038C29.6905 13.2544 29.3785 13.191 29.3785 13.191H28.5085C28.2595 13.191 28.3225 12.88 28.3225 12.88C28.6345 12.7562 28.6945 12.1916 28.6945 12.1916V9.25385L28.3825 8.69226L28.3795 8.68924ZM24.4046 11.4368L24.3416 12.3728L24.5906 12.8106C24.7766 13.0612 24.4676 13.2484 24.4676 13.2484L23.5376 13.1246C23.3516 13.0612 23.5376 12.7502 23.5376 12.7502C23.7866 12.6264 23.7866 12.249 23.7866 12.249V9.24781C23.7866 9.12402 23.5376 8.81002 23.5376 8.81002C23.3516 8.81002 23.4146 8.49903 23.4146 8.49903C23.4776 8.37524 23.9726 8.43562 23.9726 8.43562H25.2146C26.3935 8.81002 26.2075 9.68561 26.2075 9.68561C26.2705 10.5612 25.4006 10.8722 25.4006 10.8722L25.3376 11.3734L26.2075 12.7472C26.3305 12.871 26.3305 12.9978 26.3305 12.9978C26.2075 13.3087 25.7095 12.9978 25.7095 12.9978L24.6536 11.31C24.5306 11.1862 24.4046 11.4338 24.4046 11.4338M24.4046 9.06364V10.6246C24.9626 11.0624 25.2746 10.4374 25.2746 10.4374C26.0185 9.74901 25.2746 9.06363 25.1516 8.87644C25.0286 8.68924 24.4676 8.87644 24.4676 8.87644L24.4046 9.06364ZM15.3387 26.5634C15.3387 26.5634 15.4017 28.7494 15.3387 29.0634V29.5646C15.3387 29.5646 15.4617 29.8786 15.6477 30.0024C15.6477 30.0024 15.7707 30.4402 15.4617 30.3767C15.4617 30.3767 14.7177 30.3133 14.5317 30.3767C14.5317 30.3767 14.0967 30.3767 14.5317 29.8755C14.5317 29.8755 14.6547 29.6884 14.6547 29.1268C14.6547 29.1268 14.6547 26.6268 14.7177 26.503C14.7177 26.503 14.7807 26.189 14.5947 26.0652H14.2227L13.7878 26.503C13.7878 26.503 13.6648 26.9408 13.4788 26.503V26.2524L13.7278 25.564H13.9138C13.9138 25.564 14.1627 25.7512 14.4117 25.8146H15.7767L16.2747 25.564C16.2747 25.564 16.4607 25.564 16.3977 25.878C16.3977 25.878 16.4607 26.5664 16.0887 26.6268C16.0887 26.6268 15.8397 26.5634 15.7167 26.189C15.7167 26.1256 15.3447 25.875 15.3447 26.5634M21.7976 25.7512C21.7976 25.7512 20.6786 25.6274 20.6786 26.8774C20.6786 26.8774 20.5556 27.6896 21.7976 28.2512C21.7976 28.2512 22.7276 28.689 22.6676 29.2506C22.6676 29.2506 22.5446 30.2499 21.5486 29.7518C21.5486 29.7518 21.0506 29.5012 21.1136 29.2506C21.1136 29.2506 20.9906 28.9366 20.8016 29C20.8016 29 20.6156 29.0634 20.6786 30.0627C20.6786 30.0627 20.6786 30.4371 21.1136 30.0627L21.3626 30.1261C21.3626 30.1261 22.1696 30.7511 22.8536 30.0024C22.8536 30.0024 23.5976 29.314 23.0396 28.5018C23.0396 28.5018 22.6676 27.8768 21.9836 27.6262C21.9836 27.6262 21.3626 27.3122 21.1766 26.814C21.1766 26.814 21.3626 25.9384 22.1696 26.3762C22.1696 26.3762 22.4816 26.7506 22.6676 26.814C22.6676 26.814 22.9166 26.814 22.8536 26.2524L22.7906 25.8146C22.7906 25.8146 22.7276 25.5006 22.2926 25.8146C22.2926 25.7512 21.9206 25.9384 21.7946 25.7512M18.2577 25.1262C18.4437 25.25 18.5067 25.564 18.5067 25.564C19.1277 27.125 19.6257 29.4378 19.6257 29.4378C19.7487 29.7518 20.0606 29.939 20.0606 29.939C20.5586 30.1261 20.0606 30.253 20.0606 30.253C19.8747 30.3164 19.1907 30.253 19.1907 30.253C18.8187 30.1896 19.0047 30.0658 19.0047 30.0658C19.1277 29.942 19.0047 29.317 19.0047 29.317C19.0047 29.0664 18.6927 28.692 18.6927 28.692C18.5697 28.6286 18.3807 28.8792 18.3807 28.8792C18.3807 28.8792 18.0687 29.003 18.0087 28.8792C17.9487 28.7554 17.7597 28.6286 17.7597 28.6286C17.3877 28.6286 17.2617 29.5042 17.2617 29.5042C17.4477 30.253 17.2617 30.1292 17.2617 30.1292C17.0757 30.3798 16.5177 30.1926 16.5177 30.1926C16.2687 30.1292 16.4547 29.942 16.4547 29.942C16.7667 29.8786 16.8897 29.5042 16.8897 29.5042C17.0127 29.317 18.0087 25.4402 18.0087 25.4402C17.9457 25.3768 18.0087 25.0024 18.2577 25.1262ZM17.7597 27.125C17.7597 27.2488 17.5107 28.1244 17.5107 28.1244L17.6967 28.4384H18.3177C18.4407 28.4384 18.5037 28.3146 18.5037 28.1244C18.5037 28.0006 18.1917 27.0616 18.1917 27.0616L18.0687 26.8744L17.7597 27.125Z" fill="black"/>
</g>
<defs>
<clipPath id="clip0_22_3969">
<rect width="174" height="44" fill="white"/>
</clipPath>
</defs>
</svg>
