<svg width="112" height="36" viewBox="0 0 112 36" fill="none" xmlns="http://www.w3.org/2000/svg">
<path d="M23.7609 33.0343L23.7621 33.0354L23.7636 33.0369C23.9788 33.2496 24.1955 33.4638 24.4046 33.6679V33.6778C25.0334 34.2867 24.6011 35.3572 23.7168 35.3572H10.5904C9.70614 35.3572 9.27384 34.2965 9.90265 33.6778C10.3251 33.2653 10.7771 32.8233 11.1897 32.4108C12.1231 31.4876 12.6439 30.2304 12.6439 28.9242L12.6439 24.8024C12.6445 23.2621 12.6451 21.7153 12.0937 20.242C11.5926 18.9063 6.80772 10.6269 3.56541 5.07775C2.91694 3.96793 2.07198 2.97596 1.06981 2.16078C0.834006 1.96435 0.627677 1.79739 0.4803 1.67953C-0.286064 1.06078 -0.099386 -0.00975432 0.78488 6.71089e-05C0.942281 6.71089e-05 2.29529 0.00196462 3.81188 0.00409155C5.74564 0.00680354 7.94537 0.00988853 8.27167 0.00988853C9.32296 0.00988853 10.2957 0.56971 10.8066 1.47328C13.0565 5.36257 19.0794 15.842 20.5237 18.7295C21.2802 20.2224 21.6634 21.8724 21.6634 23.5519V28.9144C21.6634 30.2206 22.1841 31.4778 23.1175 32.401C23.325 32.6034 23.5423 32.8183 23.7609 33.0343Z" fill="white"/>
<path d="M67.201 14.5481C67.201 14.7687 67.4655 14.8833 67.6283 14.7344C69.0404 13.4441 70.3117 12.4819 71.4423 11.8479C72.9381 10.9909 74.3884 10.5624 75.793 10.5624C77.6719 10.5624 79.0674 11.1185 79.9795 12.2308C80.9098 13.3432 81.4936 14.9387 81.7307 17.0175L83.3692 30.8033C83.5752 32.0825 84.2471 32.5905 84.8055 33.0126C85.2548 33.3523 85.6306 33.6363 85.6306 34.2222C85.6306 34.9727 85.0371 35.371 84.0566 35.371H73.8776C72.9473 35.371 72.4821 35.0835 72.4821 34.1957C72.4821 33.416 72.9975 33.1071 73.5372 32.7838C74.2495 32.3569 75.0041 31.9047 74.6711 30.3108L73.4398 19.6981C73.2939 18.5128 73.0111 17.6375 72.5915 17.0722C72.1902 16.4887 71.5609 16.1969 70.7035 16.1969C70.1562 16.1969 69.609 16.3337 69.0617 16.6072C69.0335 16.6213 69.0055 16.6357 68.9777 16.6503C67.719 17.3112 67.201 18.8029 67.201 20.2245V30.8033C67.201 32.1425 67.9158 32.6426 68.5233 33.0676C68.9723 33.3818 69.3627 33.655 69.3627 34.1957C69.3627 35.0791 68.8976 35.371 67.9672 35.371H57.8977C57.0203 35.371 56.3654 35.0712 56.3654 34.1687C56.3654 33.6557 56.7804 33.3911 57.2618 33.0841C57.9268 32.66 58.7186 32.1551 58.7186 30.8033V17.8928C58.7186 17.364 58.6547 16.9902 58.527 16.7713C58.2154 16.2373 57.6686 15.9556 57.1805 15.7041C56.6413 15.4264 56.1738 15.1855 56.1738 14.6823C56.1738 13.9049 56.9701 13.4747 57.5967 13.2155L63.2061 11.2735C63.8628 11.0182 64.3736 10.845 64.7384 10.7538C65.1032 10.6626 65.4498 10.6171 65.7782 10.6171C66.2525 10.6171 66.6082 10.7629 66.8453 11.0547C67.0825 11.3465 67.201 11.7294 67.201 12.2035V14.5481Z" fill="white"/>
<path d="M36.8745 10.7326C36.596 10.432 36.1706 10.6985 36.0437 11.0881C34.9955 14.3058 32.068 17.1293 29.5516 17.6216C29.1422 17.7017 28.8018 18.0355 28.8018 18.4527L28.8018 28.4507C28.8018 30.876 29.3765 32.7451 30.5257 34.058C31.6749 35.3527 33.2073 36 35.1227 36C38.8444 36 41.396 33.9903 43.7494 31.8078C43.9122 31.6569 44.1798 31.771 44.1798 31.993V32.2527C44.1798 33.1645 44.4534 33.9121 45.0006 34.4956C45.5479 35.0791 46.3323 35.3709 47.3539 35.3709H53.2916C54.169 35.3709 54.8239 35.0712 54.8239 34.1687C54.8239 33.6446 54.4089 33.3766 53.9294 33.067C53.2739 32.6436 52.4981 32.1426 52.4981 30.8033V12.2308C52.4981 11.7566 52.3704 11.3737 52.115 11.082C51.8778 10.7902 51.5221 10.6443 51.0478 10.6443C50.7377 10.6443 50.4002 10.6899 50.0354 10.7811C49.6706 10.8723 49.1598 11.0455 48.5031 11.3008L42.8937 13.2428L42.8415 13.2643C42.1396 13.5542 41.4435 13.8416 41.4435 14.6846C41.4435 15.1698 41.9078 15.4093 42.4396 15.6836C42.9443 15.944 43.5098 16.2357 43.7967 16.7986C43.9244 17.0174 43.9882 17.3912 43.9882 17.9201V27.7171C43.9882 28.2746 43.7649 28.8173 43.3244 29.1591C41.8751 30.2836 39.4556 31.0822 38.0505 29.4354C37.5397 28.7972 37.2843 27.849 37.2843 26.5908V11.929C37.2843 11.486 37.1572 11.0378 36.8745 10.7326Z" fill="white"/>
<path fill-rule="evenodd" clip-rule="evenodd" d="M100.809 33.3704C100.653 33.0751 100.453 33.0446 100.217 33.2815C99.5849 33.9169 98.8147 34.4471 97.9067 34.8723C92.4806 37.4126 86.1043 35.2669 86.1043 28.8361C86.1043 22.6908 94.1518 21.6375 99.1473 21.6375C99.465 21.6927 99.7645 21.454 99.7645 21.1315V16.0011C99.7645 15.0907 99.5459 14.3898 99.1088 13.8982C98.6899 13.3884 98.0979 13.1335 97.333 13.1335C96.0124 13.1335 95.0927 14.8059 95.0927 16.52C95.0927 17.758 94.7102 18.7321 93.9452 19.4421C93.1803 20.134 92.1148 20.4799 90.7488 20.4799C89.5285 20.4799 88.6178 20.1977 88.0167 19.6333C87.4157 19.0507 87.1152 18.2496 87.1152 17.23C87.1152 16.1012 87.5523 15.0361 88.4265 14.0348C89.3008 13.0152 90.603 12.1868 92.3333 11.5495C94.0818 10.8941 96.2401 10.5664 98.8082 10.5664C102.032 10.5664 104.409 11.2127 105.939 12.5054C107.487 13.7799 108.261 15.555 108.261 17.8308V29.8745C108.261 30.5252 108.436 31.1035 109.245 31.1035C109.734 31.1035 109.976 30.8384 110.19 30.6049C110.358 30.4211 110.509 30.2569 110.747 30.2569C111.344 30.2569 111.567 30.9023 111.567 31.4039C111.567 32.0593 111.339 32.733 110.884 33.4248C110.447 34.1167 109.8 34.6993 108.944 35.1727C108.106 35.646 107.059 35.8827 105.802 35.8827C104.181 35.8827 102.879 35.4913 101.895 34.7084C101.351 34.2753 101.008 33.7462 100.809 33.3704ZM94.1966 28.3863C94.1966 25.7432 95.874 23.8565 98.4082 23.8565C99.7645 23.8565 99.7645 24.7203 99.7645 25.559V30.4247C99.7645 30.7473 99.6204 31.0489 99.3331 31.1957L99.3228 31.201C96.5502 32.6214 94.1966 31.2753 94.1966 28.3863Z" fill="white"/>
<path d="M28.6813 5.87724C28.6318 5.82771 28.5723 5.79799 28.503 5.79799V5.77817C28.4534 5.77817 28.4138 5.79799 28.3741 5.8178C24.0135 8.25989 22.0259 10.5782 20.9193 13.3723C20.7767 13.7325 20.28 13.643 20.1305 13.3723C16.2801 6.39951 24.0203 2.23857 26.2506 1.46871C28.8273 0.57711 32.1401 -0.165857 34.8358 0.0322775C35.6506 0.0921667 36.106 0.939267 35.7521 1.6765C34.7445 3.77522 34.3541 5.85376 33.9978 7.75118C33.1248 12.3997 31.4882 15.3297 26.1536 15.929C25.4724 16.0055 24.7391 16.0453 23.952 16.0453C22.2448 16.0453 22.4118 14.3222 23.3916 12.5627C24.9695 9.72926 28.5127 6.31297 28.6615 6.18435C28.7606 6.07538 28.7408 5.95649 28.6813 5.87724Z" fill="white"/>
</svg>
