<svg viewBox="0 0 15 12" fill="none" xmlns="http://www.w3.org/2000/svg">
  <path d="M14.5756 5.07302C14.8598 5.33645 14.8598 5.78202 14.5756 6.04545C13.3307 7.1992 10.2289 10.0679 9.26924 10.8988C8.97635 11.1917 8.50147 11.1917 8.20858 10.8988C7.91569 10.6059 7.95833 10.2301 8.20858 9.83814L9.66043 7.32582C9.76218 7.1679 9.65991 6.95837 9.47281 6.94144L0.683305 6.29287C0.298054 6.26444 0 5.94358 0 5.55728C0 5.15812 0.30962 4.82739 0.707914 4.8011L9.54703 4.21765C9.73413 4.20072 9.8364 3.9912 9.73465 3.83327L8.20858 1.28033C7.97576 0.949986 7.91569 0.512563 8.20858 0.219669C8.50147 -0.0732231 8.97635 -0.0732231 9.26924 0.219669C10.2289 1.05061 13.3307 3.91927 14.5756 5.07302Z" fill="currentColor"/>
</svg>
