<svg viewBox="0 0 120 120" fill="none" xmlns="http://www.w3.org/2000/svg">
  <path d="M35.3542 54.0625C42.5 57.9583 48.7917 63.25 53.8542 69.5833C56.1667 72.4792 58.2292 75.6042 59.9792 78.9167C61.75 75.6042 63.7917 72.5 66.1042 69.5833C71.1667 63.2292 77.4583 57.9375 84.6042 54.0625C93.2917 49.3333 103.229 46.6667 113.708 46.6667H115.771C118.083 46.6667 119.958 48.5417 119.958 50.8542C119.958 81.6875 94.9792 106.667 64.1458 106.667H55.7708C24.9792 106.667 0 81.6875 0 50.8542C0 48.5417 1.875 46.6667 4.1875 46.6667H6.25C16.75 46.6667 26.6875 49.3333 35.3542 54.0625ZM63.3125 14.5833C66.8333 17.8958 76.1042 27.7917 81.8542 44.2292C73.5 48.4375 66.0625 54.2708 60 61.3333C53.9167 54.2708 46.5 48.4583 38.1458 44.2292C43.8958 27.7917 53.1875 17.8958 56.6875 14.5833C57.5833 13.7292 58.7708 13.3333 60 13.3333C61.2292 13.3333 62.4167 13.75 63.3125 14.5833Z" fill="#66BA24" fill-opacity="0.2"/>
</svg>
