<svg viewBox="0 0 120 120" fill="none" xmlns="http://www.w3.org/2000/svg">
  <g clip-path="url(#clip0)">
    <path d="M120 7.5C120 32.8359 102.047 53.9766 78.1875 58.9219C76.3359 45.3047 70.2188 33.0469 61.1953 23.5547C70.5938 9.375 86.6953 0 105 0H112.5C116.648 0 120 3.35156 120 7.5ZM0 22.5C0 18.3516 3.35156 15 7.5 15H15C43.9922 15 67.5 38.5078 67.5 67.5V112.5C67.5 116.648 64.1484 120 60 120C55.8516 120 52.5 116.648 52.5 112.5V75C23.5078 75 0 51.4922 0 22.5Z" fill="#66BA24" fill-opacity="0.2"/>
  </g>
  <defs>
    <clipPath id="clip0">
      <rect width="120" height="120" fill="white"/>
    </clipPath>
  </defs>
</svg>
