<svg width="24" height="24" viewBox="0 0 24 24" fill="none" xmlns="http://www.w3.org/2000/svg">
<path d="M12.3017 7.74646C11.4612 7.74646 10.1601 6.84824 8.78996 6.88071C6.98231 6.90235 5.32433 7.86551 4.39172 9.3914C2.51498 12.454 3.90814 16.9776 5.73882 19.4667C6.63689 20.6787 7.69616 22.0423 9.10083 21.999C10.4479 21.9449 10.9545 21.1765 12.5895 21.1765C14.2129 21.1765 14.6735 21.999 16.1012 21.9665C17.5519 21.9449 18.473 20.7328 19.3596 19.5099C20.3843 18.1031 20.8103 16.7395 20.8333 16.6638C20.7988 16.6529 18.0125 15.6465 17.9779 12.6163C17.9549 10.084 20.177 8.87195 20.2807 8.81784C19.0142 7.0755 17.0683 6.88071 16.389 6.83742C14.6159 6.70756 13.1306 7.74646 12.3017 7.74646ZM15.2952 5.19248C16.0436 4.34837 16.5387 3.16877 16.4005 2C15.3298 2.04329 14.0402 2.67096 13.2688 3.51508C12.578 4.26179 11.9793 5.46303 12.1405 6.61016C13.3264 6.69673 14.5468 6.03659 15.2952 5.19248Z" fill="#1E2220"/>
</svg>
